<svg width="378" height="436" viewBox="0 0 378 436" fill="none" xmlns="http://www.w3.org/2000/svg">
<path d="M258.77 278.492C258.754 289.788 254.256 300.616 246.262 308.601C238.269 316.586 227.433 321.075 216.133 321.083H149.438L108.372 435.09H0.200195L111.861 115.817C117.861 147.732 138.709 184.325 165.557 200.618C172.84 205.529 180.403 210.015 188.205 214.052V214.052L236.461 241.039C239.403 242.626 242.136 244.57 244.601 246.827V246.827C251.005 252.573 255.517 260.125 257.54 268.487C258.352 271.76 258.765 275.12 258.77 278.492V278.492Z" fill="#1A1A1A"/>
<path d="M377.2 277.343C377.2 364.473 308.796 435.09 224.432 435.09H121.75L158.078 334.256H212.693C225.402 334.257 237.747 330.022 247.778 322.222C257.808 314.421 264.951 303.501 268.076 291.188C271.201 278.874 270.13 265.871 265.033 254.234C259.935 242.597 251.103 232.991 239.931 226.936L184.336 195.87C184.336 195.87 177.956 192.322 177.776 192.192C147.868 174.03 111.171 117.776 128.27 68.8984C142.209 29.0268 186.785 0.0900879 231.492 0.0900879H373.15L336.833 100.904H229.492L301.366 141.065C308.356 145.277 314.994 150.047 321.215 155.329C355.402 184.245 377.2 228.165 377.2 277.343Z" fill="#1A1A1A"/>
</svg>
