<svg width="377" height="435" viewBox="0 0 377 435" fill="none" xmlns="http://www.w3.org/2000/svg">
<path d="M258.569 278.402C258.554 289.698 254.055 300.526 246.062 308.511C238.069 316.496 227.233 320.985 215.933 320.992H149.238L108.171 435H0L111.661 115.727C117.661 147.642 138.509 184.235 165.357 200.528C172.64 205.439 180.202 209.925 188.005 213.962V213.962L236.261 240.949C239.202 242.536 241.936 244.48 244.401 246.737V246.737C250.805 252.483 255.317 260.035 257.34 268.397C258.151 271.67 258.564 275.03 258.569 278.402V278.402Z" fill="white"/>
<path d="M377 277.253C377 364.382 308.595 435 224.232 435H121.55L157.877 334.166H212.493C225.201 334.167 237.547 329.932 247.577 322.132C257.608 314.331 264.751 303.411 267.876 291.098C271.001 278.784 269.93 265.781 264.833 254.144C259.735 242.507 250.902 232.901 239.731 226.846L184.135 195.78C184.135 195.78 177.756 192.232 177.576 192.102C147.668 173.94 110.971 117.686 128.07 68.8084C142.009 28.9367 186.585 0 231.292 0H372.95L336.633 100.814H229.292L301.166 140.975C308.156 145.187 314.794 149.957 321.014 155.239C355.202 184.155 377 228.075 377 277.253Z" fill="white"/>
</svg>
